<svg width="30" height="30" viewBox="0 0 30 30" fill="none" xmlns="http://www.w3.org/2000/svg">
<path fill-rule="evenodd" clip-rule="evenodd" d="M16.25 3.75C16.25 3.05964 15.6903 2.5 15 2.5C14.3096 2.5 13.75 3.05964 13.75 3.75V4.6875H13.0532C10.2719 4.6875 7.96988 6.85002 7.79625 9.62593L7.52 14.0427C7.41468 15.7267 6.84932 17.3496 5.88549 18.7345C5.01464 19.9858 5.78991 21.714 7.30358 21.8957L11.5625 22.4067V23.75C11.5625 25.6485 13.1015 27.1875 15 27.1875C16.8985 27.1875 18.4375 25.6485 18.4375 23.75V22.4067L22.6964 21.8957C24.21 21.714 24.9853 19.9858 24.1145 18.7345C23.1506 17.3496 22.5853 15.7267 22.48 14.0427L22.2037 9.62593C22.0301 6.85002 19.7281 4.6875 16.9467 4.6875H16.25V3.75ZM13.0532 6.5625C11.262 6.5625 9.77941 7.95521 9.6676 9.74298L9.39135 14.1598C9.2646 16.1862 8.58428 18.139 7.42447 19.8055C7.36153 19.896 7.41756 20.0209 7.52697 20.034L12.199 20.5947C14.0597 20.8179 15.9403 20.8179 17.8009 20.5947L22.473 20.034C22.5824 20.0209 22.6384 19.896 22.5755 19.8055C21.4157 18.139 20.7354 16.1862 20.6086 14.1598L20.3324 9.74297C20.2205 7.95521 18.738 6.5625 16.9467 6.5625H13.0532ZM15 25.3125C14.137 25.3125 13.4375 24.6129 13.4375 23.75V22.8125H16.5625V23.75C16.5625 24.6129 15.8629 25.3125 15 25.3125Z" fill="black"/>
</svg>
