<svg width="60" height="60" viewBox="0 0 60 60" fill="none" xmlns="http://www.w3.org/2000/svg">
<path d="M30.3132 5V23.4048C30.3132 23.483 30.2351 23.5611 30.1569 23.5611C29.61 23.7999 29.1413 24.0366 28.5944 24.2732C27.8912 24.5879 27.1099 24.9049 26.4068 25.3L23.8285 26.4831L21.7191 27.4318L19.1408 28.6171C18.4377 28.9341 17.7345 29.2489 16.9532 29.644C16.4063 29.8806 15.7813 30.1976 15.2344 30.4342C15.1563 30.4342 15.1563 30.5123 15.0781 30.4342H15C15.2344 30.0391 15.4688 29.7221 15.7032 29.3292C16.9532 27.1952 18.2814 25.0634 19.5315 22.9294C20.8596 20.6413 22.266 18.3488 23.5941 16.0585C24.8442 13.9267 26.0942 11.7949 27.3443 9.74128C28.2818 8.15862 29.2194 6.66079 30.0788 5.07813C30.2351 5.07813 30.2351 5 30.3132 5C30.3132 5 30.2351 5 30.3132 5Z" fill="#8C8C8C"/>
<path d="M45.4702 30.4342C44.2982 31.2245 43.0482 31.9343 41.8763 32.6442C38.048 34.9367 34.2978 37.1488 30.4695 39.4391C30.3914 39.4391 30.3914 39.5172 30.3132 39.5172C30.2351 39.5172 30.2351 39.4391 30.2351 39.4391V23.5612C30.2351 23.483 30.3132 23.483 30.3914 23.483C30.7039 23.6393 31.0164 23.8 31.407 23.9563C32.3446 24.4317 33.3602 24.8268 34.2978 25.3001C35.1572 25.6952 35.9385 26.0903 36.7979 26.405C37.6573 26.8001 38.4386 27.1953 39.298 27.5904C40.0012 27.9073 40.7825 28.2221 41.4856 28.6172C42.1888 28.9342 42.9701 29.2489 43.6732 29.644C44.2201 29.8806 44.767 30.1976 45.392 30.4342C45.392 30.3561 45.392 30.4342 45.4702 30.4342Z" fill="#141414"/>
<path d="M30.3132 55C30.3132 55 30.2351 55 30.3132 55C30.2351 55 30.2351 55 30.1569 54.9196C28.5944 52.7097 27.1099 50.5757 25.5473 48.3635L20.8596 41.7293C19.3752 39.5975 17.8126 37.4657 16.3282 35.2513L15.1563 33.5928C15.1563 33.5147 15.0781 33.5147 15.0781 33.4365C15.1563 33.4365 15.1563 33.5147 15.2344 33.5147C17.3439 34.7781 19.5314 36.0416 21.6409 37.305C24.0629 38.8073 26.563 40.2292 28.985 41.7293C29.3756 41.9659 29.8444 42.2025 30.2351 42.4392C30.3132 42.4392 30.3132 42.5195 30.3132 42.5976V55Z" fill="#8C8C8C"/>
<path d="M15 29.6075C15 29.5293 15 29.5293 15 29.6075C15.7813 29.2124 16.5626 28.8976 17.3439 28.5025L20.3909 27.0806C21.1722 26.6855 21.9534 26.3707 22.7347 25.9756C23.8285 25.422 25.0004 24.9488 26.0942 24.3952C26.8755 24.0782 27.6568 23.6831 28.4381 23.3683C28.985 23.1317 29.5319 22.8951 30.0788 22.5781C30.1569 22.5781 30.1569 22.5 30.2351 22.5V38.6123C30.1569 38.6927 30.1569 38.6123 30.0788 38.6123C29.8444 38.4561 29.61 38.3757 29.4538 38.2172L15.1563 29.6878C15.0781 29.6075 15 29.6075 15 29.6075ZM45.2357 32.5317C45.2357 32.6098 45.2357 32.6098 45.1576 32.688C40.6261 39.1659 36.0947 45.5635 31.5632 52.0415C31.0945 52.7514 30.6257 53.3831 30.1569 54.0952V41.5343C31.1726 40.9026 32.1883 40.2709 33.2039 39.7195L45.1576 32.6098C45.1576 32.5317 45.2357 32.5317 45.2357 32.5317Z" fill="#3C3C3B"/>
<path d="M30.3132 23.4829V5.08252L45.3139 30.1997C45.392 30.2778 45.4702 30.356 45.4702 30.4363C45.1576 30.2801 44.8451 30.1194 44.4545 29.9631C44.0638 29.8046 43.6732 29.568 43.2826 29.4095C43.0482 29.3314 42.8138 29.1729 42.5013 29.0925C42.1106 28.9363 41.6419 28.6974 41.2512 28.5412C41.0168 28.4608 40.7825 28.3045 40.5481 28.2242L38.9074 27.5143C38.5949 27.3558 38.3605 27.2777 38.048 27.1192C37.6573 26.9607 37.2667 26.7241 36.876 26.5656C36.6416 26.4875 36.4073 26.329 36.1729 26.2509L34.5322 25.5388C34.2197 25.3825 33.9853 25.3022 33.6728 25.1437C33.2821 24.9874 32.8915 24.7486 32.5008 24.5901C32.2664 24.4338 31.9539 24.3535 31.7195 24.1972L30.3132 23.4851V23.4829Z" fill="#343434"/>
</svg>
